<?xml version="1.0" encoding="UTF-8" ?>
<!DOCTYPE svg PUBLIC "-//W3C//DTD SVG 1.1//EN" "http://www.w3.org/Graphics/SVG/1.1/DTD/svg11.dtd">
<svg width="512pt" height="512pt" viewBox="0 0 512 512" version="1.1" xmlns="http://www.w3.org/2000/svg">
<g id="#000000ff">
<path fill="#000000" opacity="1.00" d=" M 162.01 57.06 C 188.70 36.32 222.12 24.27 255.95 23.65 C 283.04 24.25 309.92 31.95 333.24 45.75 C 362.38 62.87 385.92 89.39 399.28 120.46 C 410.52 146.29 414.46 175.15 410.87 203.06 C 406.10 242.32 386.21 279.47 356.12 305.15 C 341.69 317.12 331.54 334.37 329.08 353.04 C 328.12 358.86 328.92 364.87 327.37 370.61 C 326.74 373.05 325.31 375.33 325.42 377.93 C 325.42 390.94 325.51 403.95 325.39 416.96 C 325.08 428.82 317.37 439.80 306.67 444.71 C 306.47 452.08 307.47 459.72 304.89 466.80 C 300.74 479.32 288.23 488.38 275.03 488.36 C 262.05 488.40 249.08 488.47 236.10 488.32 C 220.74 488.05 206.92 475.18 205.55 459.88 C 205.11 454.84 205.43 449.77 205.33 444.71 C 194.32 439.67 186.50 428.20 186.57 415.99 C 186.54 403.33 186.55 390.67 186.58 378.01 C 186.70 375.61 185.51 373.45 184.86 371.21 C 183.06 365.64 183.86 359.72 183.03 354.00 C 180.82 335.21 170.81 317.73 156.42 305.59 C 133.64 286.24 116.43 260.42 107.45 231.90 C 97.71 201.35 97.21 167.83 106.59 137.13 C 116.12 105.53 135.88 77.19 162.01 57.06 M 245.51 64.79 C 220.45 67.20 196.44 78.93 179.09 97.17 C 161.55 115.28 150.81 139.80 149.51 164.98 C 149.39 168.96 148.71 173.41 151.19 176.87 C 154.21 181.61 161.20 183.06 165.83 179.81 C 169.10 177.75 170.82 173.85 170.68 170.05 C 170.79 147.97 180.02 126.16 195.71 110.64 C 210.96 95.27 232.26 86.02 253.94 85.66 C 257.56 85.80 261.45 84.92 263.90 82.05 C 268.04 77.71 267.33 70.01 262.47 66.50 C 257.60 62.81 251.11 64.68 245.51 64.79 M 207.90 393.60 C 207.94 401.06 207.80 408.53 207.95 415.99 C 207.96 421.74 213.36 426.65 219.08 426.26 C 243.71 426.27 268.34 426.27 292.97 426.26 C 298.65 426.61 303.97 421.77 304.04 416.08 C 304.20 408.59 304.06 401.09 304.10 393.60 C 301.43 394.12 298.75 394.63 296.03 394.60 C 269.35 394.60 242.67 394.60 215.99 394.60 C 213.26 394.64 210.57 394.12 207.90 393.60 M 226.68 447.62 C 226.72 451.09 226.47 454.58 226.85 458.05 C 227.53 463.33 232.69 467.33 237.95 467.04 C 249.99 467.08 262.04 467.08 274.08 467.04 C 278.66 467.23 283.21 464.32 284.68 459.93 C 285.83 455.94 285.18 451.71 285.32 447.61 C 265.77 447.59 246.23 447.59 226.68 447.62 Z" />
</g>
</svg>
