<?xml version="1.0" encoding="UTF-8" ?>
<!DOCTYPE svg PUBLIC "-//W3C//DTD SVG 1.1//EN" "http://www.w3.org/Graphics/SVG/1.1/DTD/svg11.dtd">
<svg width="512pt" height="512pt" viewBox="0 0 512 512" version="1.1" xmlns="http://www.w3.org/2000/svg">
<g id="#000000ff">
<path fill="#000000" opacity="1.00" d=" M 6.90 80.90 C 10.69 77.44 15.88 75.93 20.94 76.00 C 177.98 76.02 335.03 75.95 492.07 76.04 C 502.25 75.78 511.25 84.37 512.00 94.44 L 512.00 97.57 C 511.21 107.57 502.25 116.33 492.06 115.98 C 334.69 116.02 177.31 116.01 19.94 115.98 C 10.31 116.35 2.19 108.57 0.00 99.56 L 0.00 92.45 C 1.37 88.15 3.34 83.84 6.90 80.90 Z" />
<path fill="#000000" opacity="1.00" d=" M 7.44 240.44 C 11.43 237.01 16.82 235.85 21.97 235.98 C 178.67 236.05 335.37 235.94 492.07 236.04 C 502.25 235.79 511.24 244.37 512.00 254.43 L 512.00 257.57 C 511.21 267.57 502.25 276.32 492.07 275.98 C 337.05 276.03 182.02 275.97 27.00 276.01 C 21.20 275.96 14.83 276.64 9.77 273.20 C 4.72 270.28 1.60 265.04 0.00 259.56 L 0.00 252.45 C 1.42 247.91 3.59 243.40 7.44 240.44 Z" />
<path fill="#000000" opacity="1.00" d=" M 6.90 400.90 C 10.69 397.44 15.88 395.93 20.94 396.00 C 177.98 396.02 335.03 395.95 492.07 396.04 C 502.25 395.78 511.24 404.37 512.00 414.43 L 512.00 417.56 C 511.21 427.56 502.25 436.33 492.07 435.98 C 334.69 436.01 177.31 436.01 19.93 435.98 C 10.31 436.34 2.18 428.57 0.00 419.56 L 0.00 412.45 C 1.37 408.14 3.35 403.83 6.90 400.90 Z" />
</g>
</svg>
